<svg width="494" height="494" viewBox="0 0 494 494" fill="none" xmlns="http://www.w3.org/2000/svg">
<circle cx="247" cy="247" r="247" fill="#0E0E15"/>
<path fill-rule="evenodd" clip-rule="evenodd" d="M204.333 289.667H289.667C292.496 289.667 295.209 290.79 297.209 292.791C299.21 294.791 300.333 297.504 300.333 300.333C300.333 303.162 299.21 305.875 297.209 307.876C295.209 309.876 292.496 311 289.667 311H193.667C190.838 311 188.125 309.876 186.124 307.876C184.124 305.875 183 303.162 183 300.333V161.667H172.333C169.504 161.667 166.791 160.543 164.791 158.542C162.79 156.542 161.667 153.829 161.667 151C161.667 148.171 162.79 145.458 164.791 143.458C166.791 141.457 169.504 140.333 172.333 140.333H193.667C196.496 140.333 199.209 141.457 201.209 143.458C203.21 145.458 204.333 148.171 204.333 151V247H297.933L311 193.667V172.344C323.213 172.344 332.333 181.88 332.333 193.667C332.333 195.224 332.152 196.771 331.8 198.296L319.523 251.629C317.283 261.389 308.301 268.333 297.933 268.333H205.112L204.333 268.323V289.667ZM199 353.667C194.757 353.667 190.687 351.981 187.686 348.98C184.686 345.98 183 341.91 183 337.667C183 333.423 184.686 329.354 187.686 326.353C190.687 323.352 194.757 321.667 199 321.667C203.243 321.667 207.313 323.352 210.314 326.353C213.314 329.354 215 333.423 215 337.667C215 341.91 213.314 345.98 210.314 348.98C207.313 351.981 203.243 353.667 199 353.667V353.667ZM295 353.667C290.757 353.667 286.687 351.981 283.686 348.98C280.686 345.98 279 341.91 279 337.667C279 333.423 280.686 329.354 283.686 326.353C286.687 323.352 290.757 321.667 295 321.667C299.243 321.667 303.313 323.352 306.314 326.353C309.314 329.354 311 333.423 311 337.667C311 341.91 309.314 345.98 306.314 348.98C303.313 351.981 299.243 353.667 295 353.667ZM279 172.333C281.829 172.333 284.542 173.457 286.542 175.458C288.543 177.458 289.667 180.171 289.667 183C289.667 185.829 288.543 188.542 286.542 190.542C284.542 192.543 281.829 193.667 279 193.667H236.333C233.504 193.667 230.791 192.543 228.791 190.542C226.79 188.542 225.667 185.829 225.667 183C225.667 180.171 226.79 177.458 228.791 175.458C230.791 173.457 233.504 172.333 236.333 172.333H279Z" fill="white"/>
</svg>
