<svg width="256" height="256" viewBox="0 0 256 256" fill="none" xmlns="http://www.w3.org/2000/svg">
<path fill-rule="evenodd" clip-rule="evenodd" d="M85.3333 170.667H170.667C173.496 170.667 176.209 171.79 178.209 173.791C180.21 175.791 181.333 178.504 181.333 181.333C181.333 184.162 180.21 186.875 178.209 188.876C176.209 190.876 173.496 192 170.667 192H74.6667C71.8377 192 69.1246 190.876 67.1242 188.876C65.1238 186.875 64 184.162 64 181.333V42.6666H53.3333C50.5043 42.6666 47.7912 41.5428 45.7909 39.5425C43.7905 37.5421 42.6667 34.829 42.6667 32C42.6667 29.171 43.7905 26.4579 45.7909 24.4575C47.7912 22.4571 50.5043 21.3333 53.3333 21.3333H74.6667C77.4956 21.3333 80.2087 22.4571 82.2091 24.4575C84.2095 26.4579 85.3333 29.171 85.3333 32V128H178.933L192 74.6666V53.344C204.213 53.344 213.333 62.88 213.333 74.6666C213.333 76.224 213.152 77.7706 212.8 79.296L200.523 132.629C198.283 142.389 189.301 149.333 178.933 149.333H86.112L85.3333 149.323V170.667ZM80 234.667C75.7565 234.667 71.6869 232.981 68.6863 229.98C65.6857 226.98 64 222.91 64 218.667C64 214.423 65.6857 210.354 68.6863 207.353C71.6869 204.352 75.7565 202.667 80 202.667C84.2435 202.667 88.3131 204.352 91.3137 207.353C94.3143 210.354 96 214.423 96 218.667C96 222.91 94.3143 226.98 91.3137 229.98C88.3131 232.981 84.2435 234.667 80 234.667V234.667ZM176 234.667C171.757 234.667 167.687 232.981 164.686 229.98C161.686 226.98 160 222.91 160 218.667C160 214.423 161.686 210.354 164.686 207.353C167.687 204.352 171.757 202.667 176 202.667C180.243 202.667 184.313 204.352 187.314 207.353C190.314 210.354 192 214.423 192 218.667C192 222.91 190.314 226.98 187.314 229.98C184.313 232.981 180.243 234.667 176 234.667ZM160 53.3333C162.829 53.3333 165.542 54.4571 167.542 56.4575C169.543 58.4579 170.667 61.171 170.667 64C170.667 66.829 169.543 69.5421 167.542 71.5424C165.542 73.5428 162.829 74.6666 160 74.6666H117.333C114.504 74.6666 111.791 73.5428 109.791 71.5424C107.79 69.5421 106.667 66.829 106.667 64C106.667 61.171 107.79 58.4579 109.791 56.4575C111.791 54.4571 114.504 53.3333 117.333 53.3333H160Z" fill="#0E0E15"/>
</svg>
